<?xml version="1.0" encoding="UTF-8" standalone="no"?>
<!-- Created with Inkscape (http://www.inkscape.org/) -->

<svg
   width="1920"
   height="1080"
   viewBox="0 0 1920 1080"
   version="1.1"
   id="svg12810"
   inkscape:version="1.3-beta (cedbd6c6ff, 2023-05-28)"
   sodipodi:docname="01 first digital.svg"
   xmlns:inkscape="http://www.inkscape.org/namespaces/inkscape"
   xmlns:sodipodi="http://sodipodi.sourceforge.net/DTD/sodipodi-0.dtd"
   xmlns="http://www.w3.org/2000/svg"
   xmlns:svg="http://www.w3.org/2000/svg">
  <sodipodi:namedview
     id="namedview12812"
     pagecolor="#ffffff"
     bordercolor="#666666"
     borderopacity="1.0"
     inkscape:showpageshadow="2"
     inkscape:pageopacity="0.0"
     inkscape:pagecheckerboard="0"
     inkscape:deskcolor="#d1d1d1"
     inkscape:document-units="px"
     showgrid="false"
     showguides="false"
     inkscape:zoom="1.489481"
     inkscape:cx="404.50331"
     inkscape:cy="64.116293"
     inkscape:window-width="1920"
     inkscape:window-height="1027"
     inkscape:window-x="-8"
     inkscape:window-y="-8"
     inkscape:window-maximized="1"
     inkscape:current-layer="g12">
    <inkscape:grid
       id="grid1"
       units="px"
       originx="0"
       originy="0"
       spacingx="1"
       spacingy="1"
       empcolor="#0099e5"
       empopacity="0.30196078"
       color="#0099e5"
       opacity="0.14901961"
       empspacing="5"
       dotted="false"
       gridanglex="30"
       gridanglez="30"
       visible="false" />
    <sodipodi:guide
       position="0,1080"
       orientation="1,0"
       id="guide2"
       inkscape:locked="false" />
    <sodipodi:guide
       position="30,1020"
       orientation="1,0"
       id="guide3"
       inkscape:locked="false" />
    <sodipodi:guide
       position="90,1020"
       orientation="1,0"
       id="guide4"
       inkscape:locked="false" />
    <sodipodi:guide
       position="120,1020"
       orientation="1,0"
       id="guide5"
       inkscape:locked="false" />
    <sodipodi:guide
       position="60,1065"
       orientation="0,-1"
       id="guide6"
       inkscape:locked="false" />
    <sodipodi:guide
       position="60,975"
       orientation="0,-1"
       id="guide7"
       inkscape:locked="false" />
    <sodipodi:guide
       position="210,960"
       orientation="0,-1"
       id="guide10"
       inkscape:locked="false" />
    <sodipodi:guide
       position="135,1020"
       orientation="0,-1"
       id="guide15"
       inkscape:locked="false" />
    <sodipodi:guide
       position="165,1065"
       orientation="1,0"
       id="guide16"
       inkscape:locked="false" />
    <sodipodi:guide
       position="185,1010"
       orientation="1,0"
       id="guide17"
       inkscape:locked="false" />
    <sodipodi:guide
       position="360,1040"
       orientation="1,0"
       id="guide19"
       inkscape:locked="false" />
    <sodipodi:guide
       position="375,1040"
       orientation="1,0"
       id="guide20"
       inkscape:locked="false" />
  </sodipodi:namedview>
  <defs
     id="defs12807" />
  <g
     inkscape:label="Base objects"
     inkscape:groupmode="layer"
     id="layer1"
     sodipodi:insensitive="true"
     style="display:none">
    <g
       id="g7">
      <circle
         style="fill:#d7ffd2;fill-opacity:1;stroke:#000000;stroke-width:0.5;stroke-dasharray:none;stroke-opacity:1"
         id="path1"
         r="60"
         cy="60"
         cx="60" />
      <circle
         style="fill:#f5fff4;fill-opacity:1;stroke:#000000;stroke-width:0.740662;stroke-dasharray:none;stroke-opacity:1"
         id="circle2"
         r="60"
         cy="60"
         cx="60"
         transform="matrix(0.5,0,0,0.91144348,30,5.3133915)" />
    </g>
  </g>
  <g
     inkscape:label="Layer 1"
     inkscape:groupmode="layer"
     id="g9">
    <g
       id="g8"
       inkscape:label="A">
      <path
         id="circle7"
         style="fill:#d7ffd2;fill-opacity:1;stroke:#000000;stroke-width:0.5;stroke-dasharray:none;stroke-opacity:1"
         d="M 99.685401,105.00173 C 112.14285,94.007525 120,77.92133 120,60 120,26.862915 93.137085,0 60,0 26.862915,0 0,26.862915 0,60 0,77.92143 7.857237,94.007704 20.314807,105.00192 Z M 39.546275,100.00701 C 33.672637,90.023983 29.999859,75.793832 30,60 29.99973,29.797072 43.431267,5.3125 60,5.3125 c 16.568733,0 30.00027,24.484572 30,54.6875 1.41e-4,15.793636 -3.672546,30.023629 -9.546056,40.00664 z"
         sodipodi:nodetypes="csssccccsccc" />
    </g>
    <g
       id="g10"
       transform="translate(150)"
       inkscape:label="B">
      <path
         id="circle14"
         style="display:none;fill:#d2f0ff;fill-opacity:1;stroke:#000000;stroke-width:0.5;stroke-dasharray:none;stroke-opacity:1"
         d="m 79.285724,54.064934 c 1.7e-5,2.011086 -0.06338,3.993912 -0.186583,5.941596 L 104.6917,59.993119 C 104.89543,58.046391 105,56.068445 105,54.064934 105,24.33476 81.974653,0.23369211 56.785723,0.11684605 42.081367,0 25.997318,7.8547843 15.003231,20.308974 l -0.01758,79.362129 C 25.980169,112.13684 42.071814,120 60,120 93.137085,120 120,93.137085 120,60 H 90 C 90.00027,90.202928 76.568733,114.6875 60,114.6875 43.431267,114.6875 29.99973,90.202928 30,60 29.99973,29.797072 43.431267,5.3125 56.785724,5.15625 67.773213,5 79.285955,26.967249 79.285724,54.064934 Z"
         sodipodi:nodetypes="cccscccscccscc" />
      <path
         id="path17"
         style="display:inline;fill:#d2f0ff;fill-opacity:1;stroke:#000000;stroke-width:0.5;stroke-dasharray:none;stroke-opacity:1"
         d="m 79.285724,54.064934 c 1.7e-5,2.011086 -0.06338,3.993912 -0.186583,5.941596 L 104.6917,59.993119 C 104.89543,58.046391 105,56.068445 105,54.064934 105,24.33476 81.974653,0.23369211 56.785723,0.11684605 42.081367,0 25.997318,7.8547843 15.003231,20.308974 l -0.01758,79.362129 C 25.980169,112.13684 42.071814,120 60,120 93.137085,120 120,93.137085 120,60 H 90 c 2.7e-4,30.202928 -13.431267,54.6875 -30,54.6875 -10.431727,0 -19.619655,-9.70569 -24.994913,-24.433491 L 34.993914,29.301643 C 40.106258,14.804774 48.460967,5.2536514 56.785724,5.15625 67.773213,5 79.285955,26.967249 79.285724,54.064934 Z"
         sodipodi:nodetypes="cccscccsccccccc" />
    </g>
    <g
       id="g12"
       transform="translate(300)"
       inkscape:label="C">
      <path
         id="circle11"
         style="fill:#c3ffbc;fill-opacity:1;stroke:#000000;stroke-width:0.5;stroke-dasharray:none;stroke-opacity:1"
         d="M 30,60 C 29.99973,29.797072 43.431267,5.3125 63.796291,5.2954068 75.498079,5.2783137 82.830478,8.8698217 88.869732,14.998909 l 10.81939,0.0026 C 89.111906,5.6651758 75.217539,0 60,0 26.862915,0 0,26.862915 0,60 c 0,33.137085 26.862915,60 60,60 15.220634,0 29.117557,-5.66748 39.695575,-15.00725 l -10.82246,0.005 c -6.039899,6.13117 -13.37356,9.72403 -25.076824,9.70693 C 43.431267,114.6875 29.99973,90.202928 30,60 Z"
         sodipodi:nodetypes="ccccssscccc" />
      <circle
         style="display:none;fill:#ffffff;fill-opacity:1;stroke:#000000;stroke-width:0.5;stroke-dasharray:none;stroke-opacity:1"
         id="circle19"
         r="60"
         cy="60"
         cx="60"
         transform="translate(75)" />
    </g>
    <g
       id="g18"
       transform="translate(450)"
       inkscape:label="D">
      <circle
         style="fill:#d7ffd2;fill-opacity:1;stroke:#000000;stroke-width:0.5;stroke-dasharray:none;stroke-opacity:1"
         id="circle17"
         r="60"
         cy="60"
         cx="60" />
      <circle
         style="fill:#f5fff4;fill-opacity:1;stroke:#000000;stroke-width:0.740662;stroke-dasharray:none;stroke-opacity:1"
         id="circle18"
         r="60"
         cy="60"
         cx="60"
         transform="matrix(0.5,0,0,0.91144348,30,5.3133915)" />
    </g>
  </g>
</svg>
